<svg width="17" height="8" viewBox="0 0 18 9" fill="#3555f7" xmlns="http://www.w3.org/2000/svg"><path d="M15.8 6H1.2C0.88174 6 0.576516 5.89464 0.351472 5.70711C0.126428 5.51957 0 5.26522 0 5C0 4.73478 0.126428 4.48043 0.351472 4.29289C0.576516 4.10536 0.88174 4 1.2 4H15.8C16.1183 4 16.4235 4.10536 16.6485 4.29289C16.8736 4.48043 17 4.73478 17 5C17 5.26522 16.8736 5.51957 16.6485 5.70711C16.4235 5.89464 16.1183 6 15.8 6Z"></path><path d="M12.9999 9.00019C12.8683 9.00095 12.7379 8.97572 12.616 8.92596C12.4942 8.87619 12.3834 8.80287 12.2899 8.71019C12.1962 8.61722 12.1218 8.50662 12.071 8.38476C12.0203 8.2629 11.9941 8.1322 11.9941 8.00019C11.9941 7.86817 12.0203 7.73747 12.071 7.61561C12.1218 7.49375 12.1962 7.38315 12.2899 7.29019L14.5899 5.00019L12.2899 2.71019C12.1967 2.61695 12.1227 2.50626 12.0723 2.38443C12.0218 2.26261 11.9958 2.13204 11.9958 2.00019C11.9958 1.73388 12.1016 1.47849 12.2899 1.29019C12.4782 1.10188 12.7336 0.996094 12.9999 0.996094C13.1318 0.996094 13.2624 1.02207 13.3842 1.07253C13.506 1.12299 13.6167 1.19695 13.7099 1.29019L16.7099 4.29019C16.8037 4.38315 16.8781 4.49375 16.9288 4.61561C16.9796 4.73747 17.0057 4.86817 17.0057 5.00019C17.0057 5.1322 16.9796 5.2629 16.9288 5.38476C16.8781 5.50662 16.8037 5.61722 16.7099 5.71019L13.7099 8.71019C13.6165 8.80287 13.5057 8.87619 13.3838 8.92596C13.262 8.97572 13.1315 9.00095 12.9999 9.00019Z"></path></svg>