<svg xmlns="http://www.w3.org/2000/svg" viewBox="0 0 203 52" width="203" height="52" preserveAspectRatio="xMidYMid meet" style="width: 100%; height: 100%; transform: translate3d(0px, 0px, 0px); content-visibility: visible;"><defs><clipPath id="__lottie_element_20851"><rect width="203" height="52" x="0" y="0"></rect></clipPath><clipPath id="__lottie_element_20853"><path d="M0,0 L386,0 L386,100 L0,100z"></path></clipPath><linearGradient id="__lottie_element_20860" spreadMethod="pad" gradientUnits="userSpaceOnUse" x1="-51.342979431152344" y1="-56.24149703979492" x2="38.50551986694336" y2="66.35400390625"><stop offset="0%" stop-color="rgb(27,67,71)"></stop><stop offset="50%" stop-color="rgb(44,106,88)"></stop><stop offset="100%" stop-color="rgb(61,144,106)"></stop></linearGradient><mask id="__lottie_element_20861" mask-type="alpha"><g transform="matrix(1.871999979019165,0,0,1.871999979019165,192.5,50)" opacity="1" style="display: block;"><g opacity="1" transform="matrix(1,0,0,1,0,0)"><path fill="url(#__lottie_element_20864)" fill-opacity="1" d=" M-94.5,-26 C-94.5,-26 94.5,-26 94.5,-26 C98.36599731445312,-26 101.5,-22.865999221801758 101.5,-19 C101.5,-19 101.5,19 101.5,19 C101.5,22.865999221801758 98.36599731445312,26 94.5,26 C94.5,26 -94.5,26 -94.5,26 C-98.36599731445312,26 -101.5,22.865999221801758 -101.5,19 C-101.5,19 -101.5,-19 -101.5,-19 C-101.5,-22.865999221801758 -98.36599731445312,-26 -94.5,-26z"></path></g></g></mask><linearGradient id="__lottie_element_20864" spreadMethod="pad" gradientUnits="userSpaceOnUse" x1="-51.342979431152344" y1="-56.24149703979492" x2="38.50551986694336" y2="66.35400390625"><stop offset="0%" stop-color="rgb(27,67,71)"></stop><stop offset="50%" stop-color="rgb(44,106,88)"></stop><stop offset="100%" stop-color="rgb(61,144,106)"></stop></linearGradient><mask id="__lottie_element_20865" mask-type="alpha"><g transform="matrix(1.871999979019165,0,0,1.871999979019165,192.5,50)" opacity="1" style="display: block;"><g opacity="1" transform="matrix(1,0,0,1,0,0)"><path fill="url(#__lottie_element_20868)" fill-opacity="1" d=" M-94.5,-26 C-94.5,-26 94.5,-26 94.5,-26 C98.36599731445312,-26 101.5,-22.865999221801758 101.5,-19 C101.5,-19 101.5,19 101.5,19 C101.5,22.865999221801758 98.36599731445312,26 94.5,26 C94.5,26 -94.5,26 -94.5,26 C-98.36599731445312,26 -101.5,22.865999221801758 -101.5,19 C-101.5,19 -101.5,-19 -101.5,-19 C-101.5,-22.865999221801758 -98.36599731445312,-26 -94.5,-26z"></path></g></g></mask><linearGradient id="__lottie_element_20868" spreadMethod="pad" gradientUnits="userSpaceOnUse" x1="-51.342979431152344" y1="-56.24149703979492" x2="38.50551986694336" y2="66.35400390625"><stop offset="0%" stop-color="rgb(27,67,71)"></stop><stop offset="50%" stop-color="rgb(44,106,88)"></stop><stop offset="100%" stop-color="rgb(61,144,106)"></stop></linearGradient><clipPath id="__lottie_element_22662"><path d="M0,0 L1920,0 L1920,1080 L0,1080z"></path></clipPath><clipPath id="__lottie_element_22666"><path d="M0,0 L1920,0 L1920,1080 L0,1080z"></path></clipPath><filter id="__lottie_element_22671" x="-100%" y="-100%" width="300%" height="300%"><feGaussianBlur></feGaussianBlur><feGaussianBlur stdDeviation="12.783 12.783" edgeMode="duplicate"></feGaussianBlur></filter><filter id="__lottie_element_22674" x="-100%" y="-100%" width="300%" height="300%"><feGaussianBlur></feGaussianBlur><feGaussianBlur stdDeviation="17.547 17.547" edgeMode="duplicate"></feGaussianBlur></filter><linearGradient id="__lottie_element_22678" spreadMethod="pad" gradientUnits="userSpaceOnUse" x1="-2" y1="-21.25" x2="28.5" y2="-21.75"><stop offset="0%" stop-color="rgb(255,255,255)" stop-opacity="0"></stop><stop offset="25%" stop-color="rgb(255,255,255)" stop-opacity="0.5"></stop><stop offset="50%" stop-color="rgb(255,255,255)" stop-opacity="1"></stop><stop offset="75%" stop-color="rgb(255,255,255)" stop-opacity="0.5"></stop><stop offset="100%" stop-color="rgb(255,255,255)" stop-opacity="0"></stop></linearGradient><linearGradient id="__lottie_element_22682" spreadMethod="pad" gradientUnits="userSpaceOnUse" x1="-2" y1="-21.25" x2="28.5" y2="-21.75"><stop offset="0%" stop-color="rgb(255,255,255)" stop-opacity="0"></stop><stop offset="25%" stop-color="rgb(255,255,255)" stop-opacity="0.5"></stop><stop offset="50%" stop-color="rgb(255,255,255)" stop-opacity="1"></stop><stop offset="75%" stop-color="rgb(255,255,255)" stop-opacity="0.5"></stop><stop offset="100%" stop-color="rgb(255,255,255)" stop-opacity="0"></stop></linearGradient><filter id="__lottie_element_22685" x="-100%" y="-100%" width="300%" height="300%"><feGaussianBlur></feGaussianBlur><feGaussianBlur stdDeviation="12.783 12.783" edgeMode="duplicate"></feGaussianBlur></filter><filter id="__lottie_element_22688" x="-100%" y="-100%" width="300%" height="300%"><feGaussianBlur></feGaussianBlur><feGaussianBlur stdDeviation="17.547 17.547" edgeMode="duplicate"></feGaussianBlur></filter><linearGradient id="__lottie_element_22692" spreadMethod="pad" gradientUnits="userSpaceOnUse" x1="-2" y1="-21.25" x2="28.5" y2="-21.75"><stop offset="0%" stop-color="rgb(255,255,255)" stop-opacity="0"></stop><stop offset="25%" stop-color="rgb(255,255,255)" stop-opacity="0.5"></stop><stop offset="50%" stop-color="rgb(255,255,255)" stop-opacity="1"></stop><stop offset="75%" stop-color="rgb(255,255,255)" stop-opacity="0.5"></stop><stop offset="100%" stop-color="rgb(255,255,255)" stop-opacity="0"></stop></linearGradient><linearGradient id="__lottie_element_22696" spreadMethod="pad" gradientUnits="userSpaceOnUse" x1="-2" y1="-21.25" x2="28.5" y2="-21.75"><stop offset="0%" stop-color="rgb(255,255,255)" stop-opacity="0"></stop><stop offset="25%" stop-color="rgb(255,255,255)" stop-opacity="0.5"></stop><stop offset="50%" stop-color="rgb(255,255,255)" stop-opacity="1"></stop><stop offset="75%" stop-color="rgb(255,255,255)" stop-opacity="0.5"></stop><stop offset="100%" stop-color="rgb(255,255,255)" stop-opacity="0"></stop></linearGradient></defs><g clip-path="url(#__lottie_element_20851)"><g clip-path="url(#__lottie_element_20853)" transform="matrix(0.5329999923706055,0,0,0.5329999923706055,-1.3689956665039062,-0.6499996185302734)" opacity="1" style="display: block;"><g transform="matrix(1.871999979019165,0,0,1.871999979019165,192.5,50)" opacity="1" style="display: block;"><g opacity="1" transform="matrix(1,0,0,1,0,0)"><path fill="url(#__lottie_element_20860)" fill-opacity="1" d=" M-94.5,-26 C-94.5,-26 94.5,-26 94.5,-26 C98.36599731445312,-26 101.5,-22.865999221801758 101.5,-19 C101.5,-19 101.5,19 101.5,19 C101.5,22.865999221801758 98.36599731445312,26 94.5,26 C94.5,26 -94.5,26 -94.5,26 C-98.36599731445312,26 -101.5,22.865999221801758 -101.5,19 C-101.5,19 -101.5,-19 -101.5,-19 C-101.5,-22.865999221801758 -98.36599731445312,-26 -94.5,-26z"></path></g></g><g mask="url(#__lottie_element_20861)" style="display: block;"><g clip-path="url(#__lottie_element_22662)" transform="matrix(1.871999979019165,0,0,1.871999979019165,-1841.8717041015625,-960.8800048828125)" opacity="0.7253730769186746"><g filter="url(#__lottie_element_22671)" transform="matrix(1,0,0,1,960,540)" opacity="0.26" style="display: block;"><g opacity="1" transform="matrix(1,0,0,1,0,0)"><path fill="rgb(255,255,255)" fill-opacity="1" d=" M44,-46.5 C44,-46.5 13.5,-46.5 13.5,-46.5 C13.5,-46.5 -68,54 -68,54 C-68,54 -37,54 -37,54 C-37,54 44,-46.5 44,-46.5z"></path></g></g><g filter="url(#__lottie_element_22674)" transform="matrix(1,0,0,1,960,540)" opacity="0.425" style="display: block;"><g opacity="1" transform="matrix(1,0,0,1,0,0)"><path stroke-linecap="butt" stroke-linejoin="miter" fill-opacity="0" stroke-miterlimit="4" stroke="rgb(255,255,255)" stroke-opacity="1" stroke-width="2" d=" M30.812000274658203,-46.5 C30.812000274658203,-46.5 29,-46.5 29,-46.5 C29,-46.5 -52.5,54 -52.5,54 C-52.5,54 -50.1879997253418,54 -50.1879997253418,54 C-50.1879997253418,54 30.812000274658203,-46.5 30.812000274658203,-46.5z"></path></g></g><g transform="matrix(1.2799999713897705,0,0,1,955.1936645507812,540.25)" opacity="1" style="display: block;"><g opacity="1" transform="matrix(1,0,0,1,0,0)"><path stroke="url(#__lottie_element_22678)" stroke-linecap="butt" stroke-linejoin="miter" fill-opacity="0" stroke-miterlimit="4" stroke-opacity="1" stroke-width="2" d=" M-4.25,-26 C-4.25,-26 31.437999725341797,-26 31.437999725341797,-26"></path></g></g><g transform="matrix(1.2799999713897705,0,0,1,913.1936645507812,591.75)" opacity="1" style="display: block;"><g opacity="1" transform="matrix(1,0,0,1,0,0)"><path stroke="url(#__lottie_element_22682)" stroke-linecap="butt" stroke-linejoin="miter" fill-opacity="0" stroke-miterlimit="4" stroke-opacity="1" stroke-width="2" d=" M-4.25,-26 C-4.25,-26 31.437999725341797,-26 31.437999725341797,-26"></path></g></g></g></g><g mask="url(#__lottie_element_20865)" style="display: block;"><g clip-path="url(#__lottie_element_22666)" transform="matrix(1.871999979019165,0,0,1.871999979019165,-1841.8717041015625,-960.8800048828125)" opacity="0.7253730769186746"><g filter="url(#__lottie_element_22685)" transform="matrix(1,0,0,1,960,540)" opacity="0.26" style="display: block;"><g opacity="1" transform="matrix(1,0,0,1,0,0)"><path fill="rgb(255,255,255)" fill-opacity="1" d=" M44,-46.5 C44,-46.5 13.5,-46.5 13.5,-46.5 C13.5,-46.5 -68,54 -68,54 C-68,54 -37,54 -37,54 C-37,54 44,-46.5 44,-46.5z"></path></g></g><g filter="url(#__lottie_element_22688)" transform="matrix(1,0,0,1,960,540)" opacity="0.425" style="display: block;"><g opacity="1" transform="matrix(1,0,0,1,0,0)"><path stroke-linecap="butt" stroke-linejoin="miter" fill-opacity="0" stroke-miterlimit="4" stroke="rgb(255,255,255)" stroke-opacity="1" stroke-width="2" d=" M30.812000274658203,-46.5 C30.812000274658203,-46.5 29,-46.5 29,-46.5 C29,-46.5 -52.5,54 -52.5,54 C-52.5,54 -50.1879997253418,54 -50.1879997253418,54 C-50.1879997253418,54 30.812000274658203,-46.5 30.812000274658203,-46.5z"></path></g></g><g transform="matrix(1.2799999713897705,0,0,1,955.1936645507812,540.25)" opacity="1" style="display: block;"><g opacity="1" transform="matrix(1,0,0,1,0,0)"><path stroke="url(#__lottie_element_22692)" stroke-linecap="butt" stroke-linejoin="miter" fill-opacity="0" stroke-miterlimit="4" stroke-opacity="1" stroke-width="2" d=" M-4.25,-26 C-4.25,-26 31.437999725341797,-26 31.437999725341797,-26"></path></g></g><g transform="matrix(1.2799999713897705,0,0,1,913.1936645507812,591.75)" opacity="1" style="display: block;"><g opacity="1" transform="matrix(1,0,0,1,0,0)"><path stroke="url(#__lottie_element_22696)" stroke-linecap="butt" stroke-linejoin="miter" fill-opacity="0" stroke-miterlimit="4" stroke-opacity="1" stroke-width="2" d=" M-4.25,-26 C-4.25,-26 31.437999725341797,-26 31.437999725341797,-26"></path></g></g></g></g></g></g></svg>